HIERARCHY
ROOT Hips
{
  OFFSET 26.4356 102.102 -134.057
  CHANNELS 6 Xposition Yposition Zposition Zrotation Xrotation Yrotation
  JOINT RightUpLeg
  {
    OFFSET -8.9458 -8.66707 0.101652
    CHANNELS 3 Zrotation Xrotation Yrotation
    JOINT RightLeg
    {
      OFFSET 0 -44.4227 1.3727
      CHANNELS 3 Zrotation Xrotation Yrotation
      JOINT RightFoot
      {
        OFFSET 0.253549 -42.0924 -1.46059
        CHANNELS 3 Zrotation Xrotation Yrotation
        JOINT RightToes
        {
          OFFSET 0.04 -4.41509 8.4991
          CHANNELS 3 Zrotation Xrotation Yrotation
          End Site
          {
            OFFSET -0.08 -0.137448 9.77979
          }
        }
      }
    }
  }
  JOINT Spine
  {
    OFFSET 0 11.8905 0
    CHANNELS 3 Zrotation Xrotation Yrotation
    JOINT Spine1
    {
      OFFSET 0 25.6574 0.127663
      CHANNELS 3 Zrotation Xrotation Yrotation
      JOINT HEad
      {
        OFFSET 0 8.73416 0.011341
        CHANNELS 3 Zrotation Xrotation Yrotation
        End Site
        {
          OFFSET -0.29 12.7742 2.51395
        }
      }
      JOINT LeftShoulder1
      {
        OFFSET 8.99 -0.362252 -0.22
        CHANNELS 3 Zrotation Xrotation Yrotation
        JOINT LeftArm
        {
          OFFSET 10.2827 -0.00338 0.322123
          CHANNELS 3 Zrotation Xrotation Yrotation
          JOINT LeftForeArm
          {
            OFFSET 32.7669 0.099144 -1.42434
            CHANNELS 3 Zrotation Xrotation Yrotation
            JOINT LeftHand
            {
              OFFSET 27.5643 0.085362 1.02216
              CHANNELS 3 Zrotation Xrotation Yrotation
              End Site
              {
                OFFSET 16.7443 -0.6 1.50291
              }
            }
          }
        }
      }
      JOINT RightShoulder
      {
        OFFSET -8.99 -0.362252 -0.22
        CHANNELS 3 Zrotation Xrotation Yrotation
        JOINT RightArm
        {
          OFFSET -10.2827 -0.00338 0.322123
          CHANNELS 3 Zrotation Xrotation Yrotation
          JOINT RightForeArm
          {
            OFFSET -32.8971 0.099144 -1.42434
            CHANNELS 3 Zrotation Xrotation Yrotation
            JOINT RightHand
            {
              OFFSET -27.4921 0.085362 1.02216
              CHANNELS 3 Zrotation Xrotation Yrotation
              End Site
              {
                OFFSET -16.6312 -0.6 1.50291
              }
            }
          }
        }
      }
    }
  }
  JOINT LeftUpLeg
  {
    OFFSET 8.9458 -8.66707 0.101652
    CHANNELS 3 Zrotation Xrotation Yrotation
    JOINT LeftLeg
    {
      OFFSET 0 -44.4227 1.3727
      CHANNELS 3 Zrotation Xrotation Yrotation
      JOINT LeftFoot
      {
        OFFSET -0.253549 -42.0924 -1.46059
        CHANNELS 3 Zrotation Xrotation Yrotation
        JOINT LeftToes
        {
          OFFSET -0.04 -4.41509 8.4991
          CHANNELS 3 Zrotation Xrotation Yrotation
          End Site
          {
            OFFSET 0.08 -0.047448 9.77979
          }
        }
      }
    }
  }
}
MOTION
Frames:	10
Frame Time:	0.0166667
26.4356 102.102 -134.057 -3.71047 0.148547 -7.2438 12.3579 -24.1426 -0.508265 -5.86567 24.1829 -0.91468 0.543055 -7.06319 -0.173191 0.0462048 0.000533964 0.662642 1.17669 3.86805 0.685996 5.44633 -2.13195 -0.0442367 -3.85107 0.61398 0.728617 2.48481e-016 1.98785e-016 -0 -90.0249 -23.5933 -16.0497 -22.3563 18.8007 -34.3212 0.368473 9.90896 -0.00117926 -2.68529 0.154087 -0.97479 78.0199 -40.0988 -6.89229 16.2324 13.108 5.82796 -0.369625 9.91382 0.00119887 3.6203 4.37224 0.320698 -4.51662 36.3636 14.1725 -12.4691 -5.92503 -0.285854 3.02073e-011 -4.99347e-013 -8.74971e-012 
26.0144 101.954 -131.964 -4.52153 0.471557 -7.51393 13.1217 -23.9847 -2.29613 -6.2433 26.1875 1.57167 0.564986 -9.4623 -0.162964 -0.249543 0.556124 -0.0469264 1.62194 3.925 0.889709 6.96222 -2.48121 -0.00872869 -4.69744 0.483977 0.972192 7.20594e-016 2.98177e-016 -1.59028e-015 -90.4332 -24.6197 -14.9097 -22.6257 18.6134 -33.199 0.368473 9.90896 -0.00117926 -3.90597 0.146746 -0.50416 79.6882 -39.3809 -5.61974 16.2963 13.123 5.92599 -0.369625 9.91382 0.00119887 4.83512 1.68504 2.50113 -2.85986 41.5471 10.5871 -12.5192 -2.39641 0.0945109 3.02089e-011 -5.02528e-013 -8.74971e-012 
25.5717 101.894 -129.909 -5.18585 0.767803 -7.67967 13.71 -23.5915 -3.84805 -6.59226 27.7158 3.60058 0.533798 -11.6483 -0.159473 -0.458921 1.02505 -0.579181 2.00342 3.9657 1.05287 8.17752 -2.76109 0.0196026 -5.35266 0.285432 1.14939 8.69683e-017 0 -0 -90.711 -25.6211 -13.8298 -22.838 18.4038 -32.0512 0.368473 9.90896 -0.00117926 -4.8387 0.145854 -0.0386065 81.2611 -38.5604 -4.24742 16.4122 13.1531 6.11825 -0.369625 9.91382 0.00119887 6.05391 -1.01364 4.07869 -0.920343 46.3415 7.61467 -12.4596 0.0182055 0.352967 3.02105e-011 -5.08889e-013 -8.7513e-012 
25.0562 102.079 -127.947 -5.47783 0.989377 -7.54947 13.8223 -22.5803 -4.75816 -6.35004 28.0402 4.11527 0.274851 -13.2578 -0.182689 -0.451091 1.2331 -0.591623 2.20847 3.95505 1.10724 8.5734 -2.83792 0.0280122 -5.46079 -0.0983734 1.15227 -8.94531e-016 0 -1.59028e-015 -90.694 -26.5209 -12.9436 -22.9132 18.1574 -30.8366 0.368473 9.90896 -0.00117926 -4.92474 0.164083 0.42582 82.5451 -37.463 -2.61954 16.7059 13.2282 6.60677 -0.369625 9.91382 0.00119887 6.8146 -3.77199 3.9623 -0.443682 50.3528 7.72155 -11.9985 -0.963346 0.241152 3.02041e-011 -5.1525e-013 -8.74971e-012 
24.5345 102.394 -126.054 -5.50931 1.17589 -7.27891 13.6624 -21.2803 -5.305 -5.87303 27.7325 3.91448 0.0919563 -14.5289 -0.199447 -0.35986 1.35676 -0.401714 2.32248 3.93364 1.09512 8.5013 -2.83513 0.0259155 -5.33387 -0.591545 1.03929 1.2424e-016 3.97569e-016 -0 -90.5557 -27.4507 -12.1556 -22.8994 17.8845 -29.5693 0.368473 9.90896 -0.00117926 -4.69008 0.189255 0.856975 83.7995 -36.2337 -0.761138 17.0056 13.3167 7.16307 -0.369625 9.91382 0.00119887 7.1361 -6.53313 3.03783 -0.928442 53.4878 9.48909 -11.3003 -2.95112 0.028565 3.02105e-011 -5.08889e-013 -8.75289e-012 
24.068 102.809 -124.227 -5.24407 1.3494 -6.94608 13.2481 -19.8402 -5.53021 -5.43932 26.9924 3.39504 0.316953 -15.5495 -0.175542 -0.279686 1.56728 -0.250038 2.35718 3.93215 1.02967 8.07993 -2.82884 0.0176082 -5.16814 -1.21414 0.778538 4.96962e-016 1.98785e-016 -0 -90.4102 -28.523 -11.4195 -22.8186 17.5959 -28.2803 0.368473 9.90896 -0.00117926 -4.4869 0.213387 1.21379 85.2822 -34.9612 1.4219 17.1653 13.3943 7.58317 -0.369625 9.91382 0.00119887 6.96089 -9.26754 1.70879 -1.59338 55.3942 11.9653 -10.3532 -3.96973 -0.0624512 3.02073e-011 -5.05708e-013 -8.74971e-012 
23.621 103.223 -122.448 -4.89253 1.5135 -6.59224 12.765 -18.3834 -5.76384 -5.111 26.1112 2.88618 0.702375 -16.4074 -0.131685 -0.172176 1.70581 -0.0250846 2.42015 3.94508 0.929976 7.48941 -2.82724 0.00573949 -4.95957 -1.79503 0.532861 7.45443e-017 1.98785e-016 7.95139e-016 -90.2252 -29.7205 -10.7067 -22.6714 17.2772 -26.8764 0.368473 9.90896 -0.00117926 -4.27636 0.236581 1.52698 86.8337 -33.63 3.75309 17.2399 13.4746 7.9943 -0.369625 9.91382 0.00119887 6.5053 -11.9021 0.29254 -2.2658 56.3567 14.2598 -9.38299 -5.05746 -0.140657 3.02089e-011 -5.1843e-013 -8.74971e-012 
23.1747 103.507 -120.701 -4.68752 1.68671 -6.24193 12.4779 -17.1155 -6.48638 -5.05843 25.4868 2.93445 1.13196 -17.2156 -0.0736424 0.000430957 1.59886 0.378239 2.65567 3.98487 0.812489 6.95443 -2.88414 -0.0052483 -4.74748 -2.12849 0.475093 -6.21202e-016 1.98785e-016 -0 -90.0114 -31.0544 -9.98065 -22.444 16.901 -25.2366 0.368473 9.90896 -0.00117926 -4.06375 0.2587 1.76656 88.3434 -32.2535 6.11805 17.2478 13.5523 8.39608 -0.369625 9.91382 0.00119887 6.13807 -14.3897 -0.70235 -2.20039 56.7111 14.6643 -8.62395 -6.8102 -0.254489 3.02065e-011 -5.05708e-013 -8.75209e-012 
22.7399 103.717 -118.978 -4.52299 1.84601 -6.02362 12.295 -15.9354 -7.2373 -5.097 25.0214 3.21882 1.53985 -17.9863 -0.0131044 0.154203 1.46152 0.738359 2.96584 4.02847 0.698232 6.45991 -2.93886 -0.0164425 -4.56438 -2.33815 0.543751 9.93923e-017 -1.19271e-015 -7.95139e-016 -89.7314 -32.5503 -9.20901 -22.1814 16.4957 -23.4806 0.368473 9.90896 -0.00117926 -4.06859 0.272471 2.07363 90.0085 -30.8789 8.47742 17.1495 13.6582 8.96786 -0.369625 9.91382 0.00119887 5.76921 -16.6346 -1.38049 -1.66626 56.2975 14.1863 -8.06344 -8.57967 -0.364462 3.02073e-011 -5.08889e-013 -8.74891e-012 
22.3171 103.858 -117.266 -4.3724 1.95518 -6.08938 12.1797 -14.8 -7.75307 -5.12386 24.7677 3.69414 1.80164 -18.8119 0.0354688 0.168896 1.49321 0.767617 3.31653 4.06622 0.610082 6.05861 -2.94769 -0.0280044 -4.45267 -2.4236 0.728771 4.96962e-016 0 7.95139e-016 -89.3427 -34.277 -8.3776 -21.8958 16.072 -21.5988 0.368473 9.90896 -0.00117926 -4.56608 0.272212 2.60135 92.1159 -29.6199 10.7566 16.8568 13.8259 9.94409 -0.369625 9.91382 0.00119887 5.4341 -18.4979 -1.53498 -0.733953 54.9918 13.3287 -7.78543 -9.79247 -0.435455 3.02057e-011 -5.02528e-013 -8.74891e-012 
